HIERARCHY
ROOT root
{
	OFFSET 0.000000 0.000000 0.000000
	CHANNELS 6 Xposition Yposition Zposition Zrotation Yrotation Xrotation
	JOINT lhip
	{
		OFFSET 0.058581 -0.082280 -0.017664
		CHANNELS 3 Zrotation Yrotation Xrotation
		JOINT lknee
		{
			OFFSET 0.043451 -0.386469 0.008037
			CHANNELS 3 Zrotation Yrotation Xrotation
			JOINT lankle
			{
				OFFSET -0.014790 -0.426874 -0.037428
				CHANNELS 3 Zrotation Yrotation Xrotation
				JOINT ltoe
				{
					OFFSET 0.041054 -0.060286 0.122042
					CHANNELS 3 Zrotation Yrotation Xrotation
					End Site
					{
						OFFSET 0.000000 0.000000 0.000000
					}
				}
			}
		}
	}
	JOINT rhip
	{
		OFFSET -0.060310 -0.090513 -0.013543
		CHANNELS 3 Zrotation Yrotation Xrotation
		JOINT rknee
		{
			OFFSET -0.043257 -0.383688 -0.004843
			CHANNELS 3 Zrotation Yrotation Xrotation
			JOINT rankle
			{
				OFFSET 0.019056 -0.420046 -0.034562
				CHANNELS 3 Zrotation Yrotation Xrotation
				JOINT rtoe
				{
					OFFSET -0.034840 -0.062106 0.130323
					CHANNELS 3 Zrotation Yrotation Xrotation
					End Site
					{
						OFFSET 0.000000 0.000000 0.000000
					}
				}
			}
		}
	}
	JOINT lowerback
	{
		OFFSET 0.004439 0.124404 -0.038385
		CHANNELS 3 Zrotation Yrotation Xrotation
		JOINT upperback
		{
			OFFSET 0.004488 0.137956 0.026820
			CHANNELS 3 Zrotation Yrotation Xrotation
			JOINT chest
			{
				OFFSET -0.002265 0.056032 0.002855
				CHANNELS 3 Zrotation Yrotation Xrotation
				JOINT lowerneck
				{
					OFFSET -0.013390 0.211636 -0.033468
					CHANNELS 3 Zrotation Yrotation Xrotation
					JOINT upperneck
					{
						OFFSET 0.010113 0.088937 0.050410
						CHANNELS 3 Zrotation Yrotation Xrotation
						End Site
						{
							OFFSET 0.000000 0.000000 0.000000
						}
					}
				}
				JOINT lclavicle
				{
					OFFSET 0.071702 0.114000 -0.018898
					CHANNELS 3 Zrotation Yrotation Xrotation
					JOINT lshoulder
					{
						OFFSET 0.122921 0.045205 -0.019046
						CHANNELS 3 Zrotation Yrotation Xrotation
						JOINT lelbow
						{
							OFFSET 0.255332 -0.015649 -0.022946
							CHANNELS 3 Zrotation Yrotation Xrotation
							JOINT lwrist
							{
								OFFSET 0.265709 0.012698 -0.007375
								CHANNELS 3 Zrotation Yrotation Xrotation
								End Site
								{
									OFFSET 0.000000 0.000000 0.000000
								}
							}
						}
					}
				}
				JOINT rclavicle
				{
					OFFSET -0.082954 0.112472 -0.023707
					CHANNELS 3 Zrotation Yrotation Xrotation
					JOINT rshoulder
					{
						OFFSET -0.113228 0.046853 -0.008472
						CHANNELS 3 Zrotation Yrotation Xrotation
						JOINT relbow
						{
							OFFSET -0.260127 -0.014369 -0.031269
							CHANNELS 3 Zrotation Yrotation Xrotation
							JOINT rwrist
							{
								OFFSET -0.269108 0.006794 -0.006027
								CHANNELS 3 Zrotation Yrotation Xrotation
								End Site
								{
									OFFSET 0.000000 0.000000 0.000000
								}
							}
						}
					}
				}
			}
		}
	}
}
MOTION
Frames: 16
Frame Time: 0.033333
-0.009320 1.147348 1.195588 -175.408276 -0.148063 81.527172 -0.233689 -5.608575 -11.654178 -6.156861 -8.378276 36.858241 0.432980 5.891697 -13.001567 0.000000 -0.000000 0.000000 0.863927 -4.127329 -1.231470 2.236911 -2.953715 16.207711 1.453963 -4.447347 -9.271011 0.000000 -0.000000 0.000000 3.503575 3.022817 19.544553 1.394535 -0.424284 -1.661084 -0.035215 0.013960 2.147158 2.404762 -1.612542 2.580678 -1.065379 -5.337669 17.123161 -28.949572 2.158745 2.431745 -56.681512 -5.106758 9.727524 8.611478 -29.274194 4.469526 -1.829334 -4.900163 -4.933215 26.915118 3.901913 2.047827 52.178742 8.507511 11.629992 -17.785867 30.053708 -11.881617 1.467624 4.712987 -7.911407 
-0.012583 1.156303 1.194882 -177.226278 -0.384385 81.597492 -0.551424 -7.266210 -10.785650 -6.416289 -14.317066 30.680820 -0.893339 3.857930 -13.140163 0.000000 -0.000000 0.000000 0.573688 -3.694759 -1.081309 2.389803 -1.291767 16.912870 1.943982 -4.302918 -10.028244 0.000000 -0.000000 0.000000 3.466931 3.359948 19.221287 1.231905 -0.279927 -1.121459 -0.149979 -0.029087 1.962236 2.676535 -0.641378 2.758035 -1.280583 -5.796648 17.229620 -29.128004 2.107813 2.276642 -56.672950 -4.911366 10.388404 8.901855 -29.306831 3.884988 -1.362866 -4.888787 -4.983965 27.162719 4.220548 1.906092 52.180560 8.969088 11.850730 -18.793797 30.833000 -12.980495 1.307540 5.067329 -8.148132 
-0.015708 1.165763 1.194469 -179.069381 -0.368125 81.571845 -0.667297 -9.341868 -9.426807 -6.162319 -21.943501 25.570328 -2.054536 1.356236 -14.031742 0.000000 -0.000000 0.000000 0.878341 -2.986386 -0.608595 1.897760 0.235251 17.172748 1.911979 -3.967747 -10.746258 0.000000 -0.000000 0.000000 3.280442 3.507316 18.785321 1.267209 -0.260326 -0.554754 -0.076920 0.034508 1.866666 3.183446 0.198320 3.080969 -1.579158 -6.390994 17.178292 -29.463889 2.289960 2.155072 -56.666688 -4.612232 11.026527 9.438837 -29.768495 3.578682 -0.970609 -4.654126 -4.795660 27.361743 4.552289 1.736864 52.259312 9.040319 11.995889 -19.595189 31.684798 -13.501161 1.445105 5.420812 -8.458366 
-0.019465 1.174760 1.193871 177.820193 -0.494568 81.693208 -0.248743 -10.835702 -8.207750 -6.014454 -28.089524 21.117180 -2.205854 -1.408235 -13.548541 0.000000 -0.000000 0.000000 0.625533 -2.162865 -0.890761 2.288367 1.799466 18.367543 2.328507 -3.395606 -11.560085 0.000000 -0.000000 0.000000 3.234014 4.204552 18.076962 1.170999 0.217383 0.239701 -0.201037 0.054909 1.744194 3.532336 0.778717 3.395335 -1.750195 -7.246166 17.132510 -29.393716 2.416545 1.828873 -56.565328 -4.491383 11.734481 8.900237 -29.586853 3.954722 -0.243983 -4.569152 -4.854512 27.744381 4.424339 1.623898 52.278993 9.054964 12.349072 -19.945982 32.917463 -13.243958 1.553002 5.407700 -8.465127 
-0.024037 1.184836 1.192653 174.088657 -0.792846 81.609536 0.347181 -11.583285 -7.124109 -6.547220 -30.710588 18.441173 -2.853400 -2.914453 -14.334172 0.000000 -0.000000 0.000000 0.248420 -1.211976 -0.922795 2.416394 3.624791 19.472848 2.850471 -2.232750 -12.395720 0.000000 -0.000000 0.000000 2.632746 4.463830 17.858987 1.119733 0.836514 0.459354 -0.263926 0.561416 1.821294 3.961062 1.305605 3.645714 -1.952711 -7.752883 17.285914 -29.480778 2.998593 1.543453 -56.542421 -4.078484 12.020548 9.084107 -29.900838 3.892842 -0.206671 -5.020101 -5.475220 27.844003 4.303971 1.661645 52.580824 8.981175 12.929558 -20.082457 33.703063 -12.463768 1.581942 5.624669 -8.307338 
-0.028408 1.194443 1.191304 170.335730 -0.884844 81.776097 1.114967 -11.780932 -6.626234 -7.098073 -31.119900 17.584609 -2.991005 -3.282825 -14.651178 0.000000 -0.000000 0.000000 0.096420 0.173550 -0.763489 2.613348 6.512385 20.225614 2.941475 -1.272125 -12.544772 0.000000 -0.000000 0.000000 2.185204 4.497726 17.523388 1.140318 1.258405 0.749175 -0.545372 1.123803 1.730356 4.456990 1.519631 3.656337 -2.111995 -8.372468 17.774967 -29.666881 3.511127 1.552892 -56.247275 -3.954374 12.116119 8.857239 -30.068222 4.024963 -0.025610 -5.083116 -5.681406 28.445642 4.141361 1.894885 52.516270 8.881419 13.432824 -19.562740 34.344169 -11.662357 1.934036 5.575501 -8.115523 
-0.034150 1.204579 1.189366 166.457114 -0.630677 81.876158 1.487895 -11.393231 -5.957194 -7.347204 -31.445915 17.973971 -3.481531 -3.494209 -13.114727 0.000000 -0.000000 0.000000 -0.010439 0.634194 -1.220482 3.099068 6.248855 21.083835 3.436326 -0.753734 -14.076340 0.000000 -0.000000 0.000000 1.932555 4.666175 17.060843 1.249110 1.713421 1.035755 -0.379942 1.028958 1.599498 4.699507 1.454515 3.918696 -2.196829 -8.597563 18.140115 -30.040453 4.226444 1.284710 -56.341154 -3.583945 12.374808 8.876238 -29.673972 3.557467 0.242624 -4.978045 -5.161586 28.601543 4.094306 1.764427 52.557799 8.868930 13.896740 -18.340770 33.904016 -10.697020 2.215260 5.647971 -7.823603 
-0.041530 1.215344 1.186768 162.047266 -0.012731 82.332571 1.946755 -10.555532 -5.276786 -6.939089 -31.318230 17.977373 -2.066205 -2.755249 -12.616851 0.000000 -0.000000 0.000000 0.389045 2.129795 -2.255665 3.251846 8.551791 22.833364 3.123556 0.938412 -14.676261 0.000000 -0.000000 0.000000 2.464156 4.312771 16.437999 1.299717 2.325262 0.875376 -0.721280 1.221577 1.378418 4.761956 1.118634 4.642402 -2.315935 -8.862803 18.087310 -30.243704 5.016198 1.324180 -56.513856 -2.985498 12.355661 8.632619 -29.388586 3.993917 -0.014385 -4.669550 -5.051164 28.529459 3.752548 1.931673 52.810912 8.572290 14.250750 -17.499332 33.583434 -9.301565 2.750959 5.492692 -7.567753 
-0.047952 1.226447 1.183575 158.920896 0.297128 82.524301 1.980227 -9.353057 -5.014300 -6.945198 -28.860164 18.455218 -0.146128 -1.772791 -13.149647 0.000000 -0.000000 0.000000 0.215270 2.875707 -2.567616 3.570337 10.184712 23.676624 3.116572 1.684063 -14.775142 0.000000 -0.000000 0.000000 2.049222 3.727293 16.003181 1.706610 2.056506 0.726411 -0.789297 1.157582 1.398987 5.150359 0.865306 4.594024 -2.476471 -9.238948 18.983992 -30.368504 5.447869 1.617423 -56.520908 -2.928745 12.107837 8.347975 -28.493876 4.190705 -0.526371 -4.948716 -5.159026 29.000858 3.541238 1.905801 52.742683 8.622954 14.680556 -16.975964 32.518823 -8.787060 2.752334 5.378453 -7.062686 
-0.054469 1.236875 1.182968 155.972055 0.217455 82.755669 1.426207 -8.854234 -4.346691 -6.581980 -27.029374 17.927786 0.329748 -0.427718 -12.908294 0.000000 -0.000000 0.000000 -0.019684 3.802999 -2.921317 3.410206 11.373929 24.089979 3.537445 1.877124 -15.199339 0.000000 -0.000000 0.000000 0.960490 3.312518 15.740700 2.240607 1.549597 0.277538 -0.569239 0.989045 1.529092 5.391487 0.313252 4.938936 -2.681305 -9.678881 19.165969 -30.244794 5.611357 1.621061 -56.772525 -3.032991 12.313411 7.793433 -26.879209 4.916460 -0.757682 -4.602720 -4.637339 29.559592 3.053699 1.398289 52.796739 8.705785 14.891291 -16.608508 30.943818 -8.671208 2.719978 5.011047 -6.938062 
-0.060623 1.244540 1.184116 152.931652 0.281414 83.117492 1.532972 -7.634935 -3.916748 -6.816742 -26.482680 17.349457 0.711632 -0.168776 -12.946413 0.000000 -0.000000 0.000000 -0.476322 4.001099 -4.233695 3.786809 11.865023 25.558106 4.076158 3.171990 -15.056509 0.000000 -0.000000 0.000000 0.220627 3.046120 15.832053 2.453180 1.032026 -0.128645 -0.418946 0.380991 1.255618 5.767916 0.424783 5.057556 -2.675599 -9.712311 19.113877 -29.547983 5.688735 1.784457 -57.032966 -2.990274 12.218530 7.472816 -25.676604 5.545253 -0.881614 -4.429875 -4.339021 29.827442 2.402058 1.127916 53.501259 8.669030 14.639514 -16.573626 29.942115 -8.716098 2.728097 4.677569 -7.095000 
-0.067018 1.251456 1.184777 148.952462 0.152362 83.302184 1.655817 -6.460783 -2.887381 -6.734509 -24.642685 15.798675 1.267137 0.587791 -12.717455 0.000000 -0.000000 0.000000 -0.981422 4.498314 -5.979276 4.138501 11.752392 27.535337 4.660697 3.462177 -14.788908 0.000000 -0.000000 0.000000 -0.174686 2.552520 15.717074 2.331028 1.037935 0.139751 -0.753484 0.447400 1.140982 5.952744 0.502667 4.869977 -2.452536 -10.140547 18.979463 -28.730018 5.074228 2.347502 -56.791943 -3.311576 12.164604 7.408638 -24.940324 5.797365 -1.516222 -4.353267 -3.934702 29.809315 2.512395 1.574600 54.678594 8.758177 14.185740 -17.479811 28.834610 -10.178738 2.689152 4.270865 -8.155802 
-0.071512 1.257887 1.187065 145.166189 0.206918 83.288855 1.550209 -5.340375 -1.383756 -6.114032 -23.332376 13.906248 1.404486 1.689463 -12.311653 0.000000 -0.000000 0.000000 -1.157508 4.405996 -7.531765 4.283721 10.207960 29.609817 5.880475 2.730411 -15.436266 0.000000 -0.000000 0.000000 -0.511898 1.963079 15.556238 2.371706 0.988267 0.546553 -0.831201 0.536254 0.982651 5.725758 0.910734 5.200291 -2.233869 -10.051285 18.695198 -28.499490 3.942757 3.010163 -55.939152 -3.342971 12.212318 7.617875 -24.403826 5.540793 -1.419014 -4.647766 -3.534660 29.946869 2.790660 2.205023 54.937001 8.555535 13.626324 -17.700544 28.207584 -11.516609 2.394991 4.201444 -9.403382 
-0.074911 1.263126 1.189988 141.202735 0.384031 83.303663 1.327164 -4.087678 0.059956 -5.114193 -22.056691 12.122061 1.678584 2.868666 -12.193680 0.000000 -0.000000 0.000000 -1.214053 3.584447 -9.017168 4.012449 7.065127 31.188814 6.619322 1.023048 -16.405343 0.000000 -0.000000 0.000000 -0.574554 1.435792 15.831263 2.274127 1.203241 -0.040621 -0.852312 0.279578 1.179913 5.914224 0.648935 5.213429 -2.886695 -9.751156 18.922493 -28.217521 4.340274 2.915399 -54.952900 -3.532740 11.702576 7.493539 -24.505829 5.779088 -1.970571 -4.504891 -2.709722 29.973512 2.579516 1.785355 54.745126 8.127352 13.791696 -16.603231 27.561616 -10.670360 3.050137 4.241278 -8.521184 
-0.077554 1.267714 1.192007 137.187425 0.594819 83.184268 1.491992 -2.938713 1.684084 -4.480399 -20.265192 10.186240 1.583775 3.735414 -11.837388 0.000000 -0.000000 0.000000 -1.071583 2.335643 -10.183939 3.290884 2.601058 32.537871 5.654637 -1.854266 -17.427314 0.000000 -0.000000 0.000000 -0.598411 0.929055 15.912690 2.126418 1.506574 -0.009849 -0.620693 0.299058 1.236960 5.397086 0.449521 5.402108 -3.015478 -9.327129 18.694720 -27.952335 4.534606 3.006126 -54.179419 -3.790323 10.863474 7.609427 -25.350947 5.365024 -2.038875 -4.255797 -3.007152 29.729592 2.745784 1.976164 54.457455 7.575423 13.769006 -16.088192 27.938703 -9.999538 3.329289 4.420847 -7.490457 
-0.078628 1.272051 1.192817 133.463763 0.684849 83.093246 1.850544 -1.575641 3.120816 -4.350765 -18.604497 8.471962 1.722278 4.179434 -11.754987 0.000000 -0.000000 0.000000 -0.942149 0.755298 -10.789427 2.460189 -2.107379 33.308038 4.427337 -5.134142 -18.071615 0.000000 -0.000000 0.000000 -0.753380 0.441776 16.119557 1.887481 1.664718 -0.456601 -0.426395 0.303140 1.271501 5.272143 0.422296 5.605727 -3.050520 -8.668143 19.123102 -27.573542 4.742457 3.307791 -53.466215 -4.089025 9.796320 7.748701 -25.740914 4.438599 -2.006307 -4.282618 -4.166686 29.699497 2.664400 2.231711 54.211960 7.151095 13.668256 -15.253923 28.030954 -9.365842 3.565342 4.493712 -7.053719 
